<svg id="Capa_1" enable-background="new 0 0 512 512" height="512" viewBox="0 0 512 512" width="512" xmlns="http://www.w3.org/2000/svg"><g><path d="m440.537 353.786-50.563 50.563-29.125-29.125-21.213 21.213 50.338 50.338 71.776-71.776z"/><path d="m404.785 289.47c14.487-28.497 22.287-60.314 22.287-93.125v-.105c0-107.863-87.693-195.632-195.524-195.771-25.854-.664-71.91 10.691-102.335 16.052-52.297 12.052-60.414 1.815-99.867-16.521v72.023c-.285 23.586 10.664 46.765 28.287 62.804v65.101l-57.633 96.005 24.446 97.793c4.821 19.285 22.071 32.754 41.949 32.754h47.81v56.573h211.69c19.777 17.977 46.031 28.947 74.798 28.947 61.375 0 111.307-49.932 111.307-111.307 0-60.004-47.729-109.062-107.215-111.223zm-345.439-243.137c26.757 9.042 44.33 5.659 75.542-.354 26.608-4.596 73.868-16.121 96.412-15.511 91.407 0 165.772 74.365 165.772 165.771v.105c0 35.451-10.653 69.548-30.06 98.256-13.837 4.403-26.51 11.442-37.423 20.527l-15.663-21.65v-35.488c0-25.774-14.179-49.223-37.003-61.196-15.006-7.872-31.968-9.85-47.856-6.117v-16.061c0-33.636-27.364-61-61-61h-89.221c-11.53-10.033-19.685-25.582-19.5-41.591zm28.287 161.908v-64.627h80.433c17.093 0 31 13.907 31 31v34.064l-33.02 46.369h-86.667l-11.834-13.343zm101.146 66.602 35.843-50.333c11.803-7.178 25.97-7.652 38.364-1.15 13.112 6.878 20.939 19.824 20.939 34.63v31.46l-95.146 52.135zm-122.383 121.637c-6.087 0-11.369-4.124-12.845-10.029l-21.432-85.735 19.24-32.049 14.528 16.38h92.892v81.86c0 16.307-13.266 29.573-29.573 29.573zm77.81 28.085c22.688-5.906 40.153-24.883 43.846-48.374l106.477-58.344 14.408 19.916c-12.324 17.913-19.549 39.592-19.549 62.93 0 18.917 4.749 36.744 13.11 52.36h-158.292zm256.487 57.435c-44.833 0-81.307-36.474-81.307-81.307s36.474-81.307 81.307-81.307 81.307 36.475 81.307 81.307-36.474 81.307-81.307 81.307z"/></g></svg>