<svg width="99" height="37" viewBox="0 0 99 37" fill="none" xmlns="http://www.w3.org/2000/svg">
<path d="M23.6386 2.112C23.9586 1.6 24.4226 1.248 25.0306 1.056C25.6386 0.863998 26.3906 0.767999 27.2866 0.767999C28.2146 0.767999 28.9506 0.847999 29.4946 1.008C30.0386 1.168 30.4546 1.36 30.7426 1.584C31.0306 1.808 31.2386 2.144 31.3666 2.592C31.5586 3.136 31.6546 3.968 31.6546 5.088V19.584C31.6546 23.808 30.3426 27.648 27.7186 31.104C26.4386 32.736 24.7906 34.064 22.7746 35.088C20.7586 36.08 18.5186 36.576 16.0546 36.576C13.6226 36.576 11.3986 36.064 9.38256 35.04C7.39856 34.016 5.78256 32.672 4.53456 31.008C1.94256 27.616 0.646563 23.776 0.646563 19.488V5.04C0.646563 4.272 0.662563 3.712 0.694563 3.36C0.758563 2.976 0.918563 2.544 1.17456 2.064C1.43056 1.584 1.86256 1.248 2.47056 1.056C3.07856 0.863998 3.89456 0.767999 4.91856 0.767999C5.94256 0.767999 6.75856 0.863998 7.36656 1.056C7.97456 1.248 8.39056 1.584 8.61456 2.064C8.99856 2.8 9.19056 3.808 9.19056 5.088V19.488C9.19056 21.44 9.67056 23.296 10.6306 25.056C11.1106 25.952 11.8306 26.672 12.7906 27.216C13.7506 27.76 14.8866 28.032 16.1986 28.032C18.5346 28.032 20.2786 27.168 21.4306 25.44C22.5826 23.712 23.1586 21.712 23.1586 19.44V4.752C23.1586 3.504 23.3186 2.624 23.6386 2.112ZM37.7787 0.767999H64.4667C65.4907 0.767999 66.2427 0.895999 66.7227 1.152C67.2027 1.376 67.5227 1.744 67.6827 2.256C67.8427 2.768 67.9227 3.44 67.9227 4.272C67.9227 5.104 67.8427 5.776 67.6827 6.288C67.5227 6.768 67.2507 7.104 66.8667 7.296C66.2907 7.584 65.4747 7.728 64.4187 7.728H55.2507V31.872C55.2507 32.608 55.2187 33.152 55.1547 33.504C55.1227 33.856 54.9787 34.272 54.7227 34.752C54.4987 35.2 54.0827 35.52 53.4747 35.712C52.8667 35.904 52.0667 36 51.0747 36C50.0827 36 49.2827 35.904 48.6747 35.712C48.0987 35.52 47.6827 35.2 47.4267 34.752C47.2027 34.272 47.0587 33.856 46.9947 33.504C46.9627 33.12 46.9467 32.56 46.9467 31.824V7.728H37.7307C36.7067 7.728 35.9547 7.616 35.4747 7.392C34.9947 7.136 34.6747 6.752 34.5147 6.24C34.3547 5.728 34.2747 5.056 34.2747 4.224C34.2747 3.392 34.3547 2.736 34.5147 2.256C34.6747 1.744 34.9467 1.392 35.3307 1.2C35.9067 0.911999 36.7227 0.767999 37.7787 0.767999ZM79.0801 27.504H93.8641C94.6001 27.504 95.1441 27.536 95.4961 27.6C95.8801 27.632 96.3121 27.776 96.7921 28.032C97.6561 28.48 98.0881 29.728 98.0881 31.776C98.0881 34.016 97.4961 35.328 96.3121 35.712C95.7681 35.904 94.9361 36 93.8161 36H74.8081C72.5681 36 71.2561 35.392 70.8721 34.176C70.6801 33.664 70.5841 32.848 70.5841 31.728V5.04C70.5841 3.408 70.8881 2.304 71.4961 1.728C72.1041 1.12 73.2561 0.815998 74.9521 0.815998H93.8641C94.6001 0.815998 95.1441 0.847999 95.4961 0.912C95.8801 0.943999 96.3121 1.088 96.7921 1.344C97.6561 1.792 98.0881 3.04 98.0881 5.088C98.0881 7.328 97.4961 8.64 96.3121 9.024C95.7681 9.216 94.9361 9.312 93.8161 9.312H79.0801V14.16H88.5841C89.3201 14.16 89.8641 14.192 90.2161 14.256C90.6001 14.288 91.0321 14.432 91.5121 14.688C92.3761 15.136 92.8081 16.384 92.8081 18.432C92.8081 20.672 92.2001 21.984 90.9841 22.368C90.4401 22.56 89.6081 22.656 88.4881 22.656H79.0801V27.504Z" fill="#20A5F0"/>
</svg>
