<svg width="30" height="12" viewBox="0 0 30 12" fill="none" xmlns="http://www.w3.org/2000/svg">
<path d="M7.60291 1.116C7.69625 0.966666 7.83158 0.863999 8.00891 0.807999C8.18625 0.752 8.40558 0.724 8.66691 0.724C8.93758 0.724 9.15225 0.747333 9.31091 0.794C9.46958 0.840666 9.59091 0.896666 9.67491 0.962C9.75891 1.02733 9.81958 1.12533 9.85691 1.256C9.91291 1.41467 9.94091 1.65733 9.94091 1.984V6.212C9.94091 7.444 9.55825 8.564 8.79291 9.572C8.41958 10.048 7.93891 10.4353 7.35091 10.734C6.76291 11.0233 6.10958 11.168 5.39091 11.168C4.68158 11.168 4.03291 11.0187 3.44491 10.72C2.86625 10.4213 2.39491 10.0293 2.03091 9.544C1.27491 8.55467 0.896914 7.43467 0.896914 6.184V1.97C0.896914 1.746 0.901581 1.58267 0.910914 1.48C0.929581 1.368 0.976247 1.242 1.05091 1.102C1.12558 0.961999 1.25158 0.863999 1.42891 0.807999C1.60625 0.752 1.84425 0.724 2.14291 0.724C2.44158 0.724 2.67958 0.752 2.85691 0.807999C3.03425 0.863999 3.15558 0.961999 3.22091 1.102C3.33291 1.31667 3.38891 1.61067 3.38891 1.984V6.184C3.38891 6.75333 3.52891 7.29467 3.80891 7.808C3.94891 8.06933 4.15891 8.27933 4.43891 8.438C4.71891 8.59667 5.05025 8.676 5.43291 8.676C6.11425 8.676 6.62291 8.424 6.95891 7.92C7.29491 7.416 7.46291 6.83267 7.46291 6.17V1.886C7.46291 1.522 7.50958 1.26533 7.60291 1.116ZM11.7271 0.724H19.5111C19.8098 0.724 20.0291 0.761333 20.1691 0.836C20.3091 0.901333 20.4025 1.00867 20.4491 1.158C20.4958 1.30733 20.5191 1.50333 20.5191 1.746C20.5191 1.98867 20.4958 2.18467 20.4491 2.334C20.4025 2.474 20.3231 2.572 20.2111 2.628C20.0431 2.712 19.8051 2.754 19.4971 2.754H16.8231V9.796C16.8231 10.0107 16.8138 10.1693 16.7951 10.272C16.7858 10.3747 16.7438 10.496 16.6691 10.636C16.6038 10.7667 16.4825 10.86 16.3051 10.916C16.1278 10.972 15.8945 11 15.6051 11C15.3158 11 15.0825 10.972 14.9051 10.916C14.7371 10.86 14.6158 10.7667 14.5411 10.636C14.4758 10.496 14.4338 10.3747 14.4151 10.272C14.4058 10.16 14.4011 9.99667 14.4011 9.782V2.754H11.7131C11.4145 2.754 11.1951 2.72133 11.0551 2.656C10.9151 2.58133 10.8218 2.46933 10.7751 2.32C10.7285 2.17067 10.7051 1.97467 10.7051 1.732C10.7051 1.48933 10.7285 1.298 10.7751 1.158C10.8218 1.00867 10.9011 0.906 11.0131 0.85C11.1811 0.766 11.4191 0.724 11.7271 0.724ZM23.7734 8.522H28.0854C28.3 8.522 28.4587 8.53133 28.5614 8.55C28.6734 8.55933 28.7994 8.60133 28.9394 8.676C29.1914 8.80667 29.3174 9.17067 29.3174 9.768C29.3174 10.4213 29.1447 10.804 28.7994 10.916C28.6407 10.972 28.398 11 28.0714 11H22.5274C21.874 11 21.4914 10.8227 21.3794 10.468C21.3234 10.3187 21.2954 10.0807 21.2954 9.754V1.97C21.2954 1.494 21.384 1.172 21.5614 1.004C21.7387 0.826666 22.0747 0.737999 22.5694 0.737999H28.0854C28.3 0.737999 28.4587 0.747333 28.5614 0.766C28.6734 0.775333 28.7994 0.817333 28.9394 0.891999C29.1914 1.02267 29.3174 1.38667 29.3174 1.984C29.3174 2.63733 29.1447 3.02 28.7994 3.132C28.6407 3.188 28.398 3.216 28.0714 3.216H23.7734V4.63H26.5454C26.76 4.63 26.9187 4.63933 27.0214 4.658C27.1334 4.66733 27.2594 4.70933 27.3994 4.784C27.6514 4.91467 27.7774 5.27867 27.7774 5.876C27.7774 6.52933 27.6 6.912 27.2454 7.024C27.0867 7.08 26.844 7.108 26.5174 7.108H23.7734V8.522Z" fill="white"/>
</svg>
